<svg width="1000" height="1000" viewBox="0 0 1000 1000" xmlns="http://www.w3.org/2000/svg"><defs/><path fill="#777777" transform="matrix(0.571162401676022 0 0 0.571162401676022 10.3189470698869 1.5227499578471884)" d="M 1011.04118963922 447.55915354253 C 1001.44118963922 439.95915354253 991.24118963922 432.85915354253 980.44118963922 426.65915354253 L 980.44118963922 426.65915354253 C 915.34118963922 389.05915354253 837.24118963922 383.65915354253 768.34118963922 410.35915354253 L 1011.04118963922 551.15915354253 L 1011.04118963922 447.55915354253 Z"/><path fill="#ffffff" transform="matrix(0.571162401676022 0 0 0.571162401676022 10.3189470698869 1.5227499578471884)" d="M 768.34118963922 410.35915354253 C 756.64118963922 414.85915354253 745.24118963922 420.35915354253 734.14118963922 426.65915354253 L 734.14118963922 426.65915354253 C 668.94118963922 464.35915354253 625.14118963922 529.45915354253 613.94118963922 602.75915354253 L 857.34118963922 462.45915354253 L 768.34118963922 410.35915354253 Z"/><path fill="#ffffff" transform="matrix(0.571162401676022 0 0 0.571162401676022 10.3189470698869 1.5227499578471884)" d="M 1011.04118963922 728.65915354253 L 1100.74118963922 677.15915354253 C 1102.64118963922 664.95915354253 1103.64118963922 652.45915354253 1103.64118963922 639.95915354253 L 1103.64118963922 639.95915354253 C 1103.64118963922 564.45915354253 1069.04118963922 493.85915354253 1011.04118963922 447.55915354253 L 1011.04118963922 551.15915354253 L 1011.04118963922 728.65915354253 Z"/><path fill="#ffffff" transform="matrix(0.571162401676022 0 0 0.571162401676022 10.3189470698869 1.5227499578471884)" d="M 703.64118963922 832.35915354253 C 713.24118963922 839.95915354253 723.44118963922 847.05915354253 734.24118963922 853.25915354253 L 734.24118963922 853.25915354253 C 799.54118963922 890.95915354253 877.84118963922 896.35915354253 946.94118963922 869.35915354253 L 703.64118963922 728.65915354253 L 703.64118963922 832.35915354253 Z"/><path fill="#777777" transform="matrix(0.571162401676022 0 0 0.571162401676022 10.3189470698869 1.5227499578471884)" d="M 703.64118963922 551.15915354253 L 613.94118963922 602.75915354253 C 612.04118963922 614.95915354253 611.04118963922 627.35915354253 611.04118963922 639.95915354253 L 611.04118963922 639.95915354253 C 611.04118963922 715.45915354253 645.64118963922 786.05915354253 703.64118963922 832.35915354253 L 703.64118963922 728.65915354253 L 703.64118963922 551.15915354253 Z"/><path fill="#777777" transform="matrix(0.571162401676022 0 0 0.571162401676022 10.3189470698869 1.5227499578471884)" d="M 980.54118963922 853.25915354253 C 1045.84118963922 815.55915354253 1089.54118963922 750.35915354253 1100.74118963922 677.15915354253 L 857.34118963922 817.45915354253 L 946.84118963922 869.35915354253 C 958.34118963922 864.85915354253 969.64118963922 859.45915354253 980.54118963922 853.25915354253 L 980.54118963922 853.25915354253 Z"/><path id="text" fill="#ffffff" transform="matrix(1.5570503238664672 0 0 1.5570503238664672 -5.32831091180867 425.5239720873552)" d="M 121.2620544 134.28748416662 L 143.8220544 134.28748416662 L 143.8220544 143.11948416662 L 110.3180544 143.11948416662 L 110.3180544 76.39948416662 L 121.2620544 76.39948416662 L 121.2620544 134.28748416662 Z M 193.1660544 129.48748416662 L 165.2300544 129.48748416662 L 160.4300544 143.11948416662 L 149.0060544 143.11948416662 L 172.9100544 76.30348416662 L 185.5820544 76.30348416662 L 209.4860544 143.11948416662 L 197.9660544 143.11948416662 L 193.1660544 129.48748416662 Z M 190.0940544 120.55948416662 L 179.2460544 89.55148416662 L 168.3020544 120.55948416662 L 190.0940544 120.55948416662 Z M 302.3180544 76.39948416662 L 277.2620544 143.11948416662 L 264.5900544 143.11948416662 L 239.4380544 76.39948416662 L 251.1500544 76.39948416662 L 270.9260544 131.88748416662 L 290.7980544 76.39948416662 L 302.3180544 76.39948416662 Z M 322.3820544 76.39948416662 L 322.3820544 143.11948416662 L 311.4380544 143.11948416662 L 311.4380544 76.39948416662 L 322.3820544 76.39948416662 Z M 379.8860544 76.39948416662 L 379.8860544 85.32748416662 L 362.1260544 85.32748416662 L 362.1260544 143.11948416662 L 351.1820544 143.11948416662 L 351.1820544 85.32748416662 L 333.3260544 85.32748416662 L 333.3260544 76.39948416662 L 379.8860544 76.39948416662 Z M 425.5820544 143.11948416662 L 410.2220544 116.43148416662 L 401.8700544 116.43148416662 L 401.8700544 143.11948416662 L 390.9260544 143.11948416662 L 390.9260544 76.39948416662 L 413.9660544 76.39948416662 C 419.0860544 76.39948416662 423.4220544 77.29548416662 426.9740544 79.08748416662 C 430.5260544 80.87948416662 433.1820544 83.27948416662 434.9420544 86.28748416662 C 436.7020544 89.29548416662 437.5820544 92.65548416662 437.5820544 96.36748416662 C 437.5820544 100.71948416662 436.3180544 104.67148416662 433.7900544 108.22348416662 C 431.2620544 111.77548416662 427.3740544 114.19148416662 422.1260544 115.47148416662 L 438.6380544 143.11948416662 L 425.5820544 143.11948416662 Z M 401.8700544 107.69548416662 L 413.9660544 107.69548416662 C 418.0620544 107.69548416662 421.1500544 106.67148416662 423.2300544 104.62348416662 C 425.3100544 102.57548416662 426.3500544 99.82348416662 426.3500544 96.36748416662 C 426.3500544 92.91148416662 425.3260544 90.20748416662 423.2780544 88.25548416662 C 421.2300544 86.30348416662 418.1260544 85.32748416662 413.9660544 85.32748416662 L 401.8700544 85.32748416662 L 401.8700544 107.69548416662 Z M 462.5420544 85.23148416662 L 462.5420544 104.81548416662 L 485.5820544 104.81548416662 L 485.5820544 113.74348416662 L 462.5420544 113.74348416662 L 462.5420544 134.19148416662 L 488.4620544 134.19148416662 L 488.4620544 143.11948416662 L 451.5980544 143.11948416662 L 451.5980544 76.30348416662 L 488.4620544 76.30348416662 L 488.4620544 85.23148416662 L 462.5420544 85.23148416662 Z M 479.4380544 62.09548416662 L 458.2220544 72.55948416662 L 458.2220544 64.49548416662 L 479.4380544 52.78348416662 L 479.4380544 62.09548416662 Z M 512.8460544 85.23148416662 L 512.8460544 104.81548416662 L 535.8860544 104.81548416662 L 535.8860544 113.74348416662 L 512.8460544 113.74348416662 L 512.8460544 134.19148416662 L 538.7660544 134.19148416662 L 538.7660544 143.11948416662 L 501.9020544 143.11948416662 L 501.9020544 76.30348416662 L 538.7660544 76.30348416662 L 538.7660544 85.23148416662 L 512.8460544 85.23148416662 Z"/><path id="text" fill="#ffffff" transform="matrix(0.7785251619332336 0 0 0.7785251619332336 4.088729446935725 531.5528709413662)" d="M 245.9801088 219.13496833323 L 220.5401088 286.23896833323 L 212.8601088 286.23896833323 L 187.4201088 219.13496833323 L 194.7161088 219.13496833323 L 216.7001088 278.94296833323 L 238.8761088 219.13496833323 L 245.9801088 219.13496833323 Z M 260.7641088 222.49496833323 C 259.8041088 221.53496833323 259.3241088 220.35096833323 259.3241088 218.94296833323 C 259.3241088 217.53496833323 259.8041088 216.36696833323 260.7641088 215.43896833323 C 261.7241088 214.51096833323 262.8761088 214.04696833323 264.2201088 214.04696833323 C 265.5641088 214.04696833323 266.7161088 214.51096833323 267.6761088 215.43896833323 C 268.6361088 216.36696833323 269.1161088 217.53496833323 269.1161088 218.94296833323 C 269.1161088 220.35096833323 268.6361088 221.53496833323 267.6761088 222.49496833323 C 266.7161088 223.45496833323 265.5641088 223.93496833323 264.2201088 223.93496833323 C 262.8761088 223.93496833323 261.7241088 223.45496833323 260.7641088 222.49496833323 Z M 267.5801088 233.82296833323 L 267.5801088 286.23896833323 L 260.8601088 286.23896833323 L 260.8601088 233.82296833323 L 267.5801088 233.82296833323 Z M 301.1321088 235.55096833323 C 304.1721088 233.75896833323 307.9001088 232.86296833323 312.3161088 232.86296833323 L 312.3161088 239.87096833323 L 310.4921088 239.87096833323 C 305.6281088 239.87096833323 301.7241088 241.18296833323 298.7801088 243.80696833323 C 295.8361088 246.43096833323 294.3641088 250.81496833323 294.3641088 256.95896833323 L 294.3641088 286.23896833323 L 287.6441088 286.23896833323 L 287.6441088 233.82296833323 L 294.3641088 233.82296833323 L 294.3641088 243.13496833323 C 295.8361088 239.87096833323 298.0921088 237.34296833323 301.1321088 235.55096833323 Z M 335.9321088 239.48696833323 L 335.9321088 272.03096833323 C 335.9321088 275.23096833323 336.5401088 277.43896833323 337.7561088 278.65496833323 C 338.9721088 279.87096833323 341.1161088 280.47896833323 344.1881088 280.47896833323 L 350.3321088 280.47896833323 L 350.3321088 286.23896833323 L 343.1321088 286.23896833323 C 338.3961088 286.23896833323 334.8761088 285.13496833323 332.5721088 282.92696833323 C 330.2681088 280.71896833323 329.1161088 277.08696833323 329.1161088 272.03096833323 L 329.1161088 239.48696833323 L 321.8201088 239.48696833323 L 321.8201088 233.82296833323 L 329.1161088 233.82296833323 L 329.1161088 220.67096833323 L 335.9321088 220.67096833323 L 335.9321088 233.82296833323 L 350.3321088 233.82296833323 L 350.3321088 239.48696833323 L 335.9321088 239.48696833323 Z M 411.5801088 233.82296833323 L 411.5801088 286.23896833323 L 404.8601088 286.23896833323 L 404.8601088 277.02296833323 C 403.3241088 280.28696833323 400.9561088 282.78296833323 397.7561088 284.51096833323 C 394.5561088 286.23896833323 390.9721088 287.10296833323 387.0041088 287.10296833323 C 380.7321088 287.10296833323 375.6121088 285.16696833323 371.6441088 281.29496833323 C 367.6761088 277.42296833323 365.6921088 271.80696833323 365.6921088 264.44696833323 L 365.6921088 233.82296833323 L 372.3161088 233.82296833323 L 372.3161088 263.67896833323 C 372.3161088 269.37496833323 373.7401088 273.72696833323 376.5881088 276.73496833323 C 379.4361088 279.74296833323 383.3241088 281.24696833323 388.2521088 281.24696833323 C 393.3081088 281.24696833323 397.3401088 279.64696833323 400.3481088 276.44696833323 C 403.3561088 273.24696833323 404.8601088 268.54296833323 404.8601088 262.33496833323 L 404.8601088 233.82296833323 L 411.5801088 233.82296833323 Z M 431.8841088 245.77496833323 C 434.0281088 241.71096833323 437.0041088 238.57496833323 440.8121088 236.36696833323 C 444.6201088 234.15896833323 448.9241088 233.05496833323 453.7241088 233.05496833323 C 458.7161088 233.05496833323 463.0201088 234.20696833323 466.6361088 236.51096833323 C 470.2521088 238.81496833323 472.8601088 241.75896833323 474.4601088 245.34296833323 L 474.4601088 233.82296833323 L 481.1801088 233.82296833323 L 481.1801088 286.23896833323 L 474.4601088 286.23896833323 L 474.4601088 274.62296833323 C 472.7961088 278.20696833323 470.1561088 281.16696833323 466.5401088 283.50296833323 C 462.9241088 285.83896833323 458.6201088 287.00696833323 453.6281088 287.00696833323 C 448.8921088 287.00696833323 444.6201088 285.88696833323 440.8121088 283.64696833323 C 437.0041088 281.40696833323 434.0281088 278.23896833323 431.8841088 274.14296833323 C 429.7401088 270.04696833323 428.6681088 265.31096833323 428.6681088 259.93496833323 C 428.6681088 254.55896833323 429.7401088 249.83896833323 431.8841088 245.77496833323 Z M 471.8681088 248.89496833323 C 470.1401088 245.69496833323 467.7881088 243.23096833323 464.8121088 241.50296833323 C 461.8361088 239.77496833323 458.5561088 238.91096833323 454.9721088 238.91096833323 C 451.2601088 238.91096833323 447.9321088 239.74296833323 444.9881088 241.40696833323 C 442.0441088 243.07096833323 439.7241088 245.48696833323 438.0281088 248.65496833323 C 436.3321088 251.82296833323 435.4841088 255.58296833323 435.4841088 259.93496833323 C 435.4841088 264.22296833323 436.3321088 267.98296833323 438.0281088 271.21496833323 C 439.7241088 274.44696833323 442.0441088 276.91096833323 444.9881088 278.60696833323 C 447.9321088 280.30296833323 451.2601088 281.15096833323 454.9721088 281.15096833323 C 458.5561088 281.15096833323 461.8361088 280.28696833323 464.8121088 278.55896833323 C 467.7881088 276.83096833323 470.1401088 274.36696833323 471.8681088 271.16696833323 C 473.5961088 267.96696833323 474.4601088 264.25496833323 474.4601088 260.03096833323 C 474.4601088 255.80696833323 473.5961088 252.09496833323 471.8681088 248.89496833323 Z M 508.0601088 215.19896833323 L 508.0601088 286.23896833323 L 501.3401088 286.23896833323 L 501.3401088 215.19896833323 L 508.0601088 215.19896833323 Z M 598.1081088 270.30296833323 L 567.5801088 270.30296833323 L 561.7241088 286.23896833323 L 554.6201088 286.23896833323 L 579.1001088 219.99896833323 L 586.6841088 219.99896833323 L 611.0681088 286.23896833323 L 603.9641088 286.23896833323 L 598.1081088 270.30296833323 Z M 596.0921088 264.73496833323 L 582.8441088 228.44696833323 L 569.5961088 264.73496833323 L 596.0921088 264.73496833323 Z M 640.1081088 235.55096833323 C 643.1481088 233.75896833323 646.8761088 232.86296833323 651.2921088 232.86296833323 L 651.2921088 239.87096833323 L 649.4681088 239.87096833323 C 644.6041088 239.87096833323 640.7001088 241.18296833323 637.7561088 243.80696833323 C 634.8121088 246.43096833323 633.3401088 250.81496833323 633.3401088 256.95896833323 L 633.3401088 286.23896833323 L 626.6201088 286.23896833323 L 626.6201088 233.82296833323 L 633.3401088 233.82296833323 L 633.3401088 243.13496833323 C 634.8121088 239.87096833323 637.0681088 237.34296833323 640.1081088 235.55096833323 Z M 674.9081088 239.48696833323 L 674.9081088 272.03096833323 C 674.9081088 275.23096833323 675.5161088 277.43896833323 676.7321088 278.65496833323 C 677.9481088 279.87096833323 680.0921088 280.47896833323 683.1641088 280.47896833323 L 689.3081088 280.47896833323 L 689.3081088 286.23896833323 L 682.1081088 286.23896833323 C 677.3721088 286.23896833323 673.8521088 285.13496833323 671.5481088 282.92696833323 C 669.2441088 280.71896833323 668.0921088 277.08696833323 668.0921088 272.03096833323 L 668.0921088 239.48696833323 L 660.7961088 239.48696833323 L 660.7961088 233.82296833323 L 668.0921088 233.82296833323 L 668.0921088 220.67096833323 L 674.9081088 220.67096833323 L 674.9081088 233.82296833323 L 689.3081088 233.82296833323 L 689.3081088 239.48696833323 L 674.9081088 239.48696833323 Z M 789.0521088 238.71896833323 C 787.1321088 234.30296833323 784.2041088 230.83096833323 780.2681088 228.30296833323 C 776.3321088 225.77496833323 771.7081088 224.51096833323 766.3961088 224.51096833323 C 761.4041088 224.51096833323 756.9241088 225.66296833323 752.9561088 227.96696833323 C 748.9881088 230.27096833323 745.8521088 233.55096833323 743.5481088 237.80696833323 C 741.2441088 242.06296833323 740.0921088 247.00696833323 740.0921088 252.63896833323 C 740.0921088 258.27096833323 741.2441088 263.23096833323 743.5481088 267.51896833323 C 745.8521088 271.80696833323 748.9881088 275.10296833323 752.9561088 277.40696833323 C 756.9241088 279.71096833323 761.4041088 280.86296833323 766.3961088 280.86296833323 C 771.0681088 280.86296833323 775.2761088 279.85496833323 779.0201088 277.83896833323 C 782.7641088 275.82296833323 785.7721088 272.94296833323 788.0441088 269.19896833323 C 790.3161088 265.45496833323 791.6121088 261.08696833323 791.9321088 256.09496833323 L 763.7081088 256.09496833323 L 763.7081088 250.62296833323 L 799.0361088 250.62296833323 L 799.0361088 255.51896833323 C 798.7161088 261.40696833323 797.1161088 266.73496833323 794.2361088 271.50296833323 C 791.3561088 276.27096833323 787.5001088 280.03096833323 782.6681088 282.78296833323 C 777.8361088 285.53496833323 772.4121088 286.91096833323 766.3961088 286.91096833323 C 760.1881088 286.91096833323 754.5561088 285.45496833323 749.5001088 282.54296833323 C 744.4441088 279.63096833323 740.4601088 275.56696833323 737.5481088 270.35096833323 C 734.6361088 265.13496833323 733.1801088 259.23096833323 733.1801088 252.63896833323 C 733.1801088 246.04696833323 734.6361088 240.14296833323 737.5481088 234.92696833323 C 740.4601088 229.71096833323 744.4441088 225.64696833323 749.5001088 222.73496833323 C 754.5561088 219.82296833323 760.1881088 218.36696833323 766.3961088 218.36696833323 C 773.5641088 218.36696833323 779.8361088 220.15896833323 785.2121088 223.74296833323 C 790.5881088 227.32696833323 794.4921088 232.31896833323 796.9241088 238.71896833323 L 789.0521088 238.71896833323 Z M 816.2681088 245.77496833323 C 818.4121088 241.71096833323 821.3881088 238.57496833323 825.1961088 236.36696833323 C 829.0041088 234.15896833323 833.3081088 233.05496833323 838.1081088 233.05496833323 C 843.1001088 233.05496833323 847.4041088 234.20696833323 851.0201088 236.51096833323 C 854.6361088 238.81496833323 857.2441088 241.75896833323 858.8441088 245.34296833323 L 858.8441088 233.82296833323 L 865.5641088 233.82296833323 L 865.5641088 286.23896833323 L 858.8441088 286.23896833323 L 858.8441088 274.62296833323 C 857.1801088 278.20696833323 854.5401088 281.16696833323 850.9241088 283.50296833323 C 847.3081088 285.83896833323 843.0041088 287.00696833323 838.0121088 287.00696833323 C 833.2761088 287.00696833323 829.0041088 285.88696833323 825.1961088 283.64696833323 C 821.3881088 281.40696833323 818.4121088 278.23896833323 816.2681088 274.14296833323 C 814.1241088 270.04696833323 813.0521088 265.31096833323 813.0521088 259.93496833323 C 813.0521088 254.55896833323 814.1241088 249.83896833323 816.2681088 245.77496833323 Z M 856.2521088 248.89496833323 C 854.5241088 245.69496833323 852.1721088 243.23096833323 849.1961088 241.50296833323 C 846.2201088 239.77496833323 842.9401088 238.91096833323 839.3561088 238.91096833323 C 835.6441088 238.91096833323 832.3161088 239.74296833323 829.3721088 241.40696833323 C 826.4281088 243.07096833323 824.1081088 245.48696833323 822.4121088 248.65496833323 C 820.7161088 251.82296833323 819.8681088 255.58296833323 819.8681088 259.93496833323 C 819.8681088 264.22296833323 820.7161088 267.98296833323 822.4121088 271.21496833323 C 824.1081088 274.44696833323 826.4281088 276.91096833323 829.3721088 278.60696833323 C 832.3161088 280.30296833323 835.6441088 281.15096833323 839.3561088 281.15096833323 C 842.9401088 281.15096833323 846.2201088 280.28696833323 849.1961088 278.55896833323 C 852.1721088 276.83096833323 854.5241088 274.36696833323 856.2521088 271.16696833323 C 857.9801088 267.96696833323 858.8441088 264.25496833323 858.8441088 260.03096833323 C 858.8441088 255.80696833323 857.9801088 252.09496833323 856.2521088 248.89496833323 Z M 892.4441088 215.19896833323 L 892.4441088 286.23896833323 L 885.7241088 286.23896833323 L 885.7241088 215.19896833323 L 892.4441088 215.19896833323 Z M 919.2281088 215.19896833323 L 919.2281088 286.23896833323 L 912.5081088 286.23896833323 L 912.5081088 215.19896833323 L 919.2281088 215.19896833323 Z M 986.5241088 262.62296833323 L 943.0361088 262.62296833323 C 943.2281088 266.59096833323 944.1881088 269.98296833323 945.9161088 272.79896833323 C 947.6441088 275.61496833323 949.9161088 277.74296833323 952.7321088 279.18296833323 C 955.5481088 280.62296833323 958.6201088 281.34296833323 961.9481088 281.34296833323 C 966.3001088 281.34296833323 969.9641088 280.28696833323 972.9401088 278.17496833323 C 975.9161088 276.06296833323 977.8841088 273.21496833323 978.8441088 269.63096833323 L 985.9481088 269.63096833323 C 984.6681088 274.75096833323 981.9321088 278.92696833323 977.7401088 282.15896833323 C 973.5481088 285.39096833323 968.2841088 287.00696833323 961.9481088 287.00696833323 C 957.0201088 287.00696833323 952.6041088 285.90296833323 948.7001088 283.69496833323 C 944.7961088 281.48696833323 941.7401088 278.35096833323 939.5321088 274.28696833323 C 937.3241088 270.22296833323 936.2201088 265.47096833323 936.2201088 260.03096833323 C 936.2201088 254.59096833323 937.3081088 249.82296833323 939.4841088 245.72696833323 C 941.6601088 241.63096833323 944.7001088 238.49496833323 948.6041088 236.31896833323 C 952.5081088 234.14296833323 956.9561088 233.05496833323 961.9481088 233.05496833323 C 966.9401088 233.05496833323 971.3081088 234.14296833323 975.0521088 236.31896833323 C 978.7961088 238.49496833323 981.6761088 241.42296833323 983.6921088 245.10296833323 C 985.7081088 248.78296833323 986.7161088 252.86296833323 986.7161088 257.34296833323 C 986.7161088 259.64696833323 986.6521088 261.40696833323 986.5241088 262.62296833323 Z M 977.5481088 247.16696833323 C 975.9161088 244.41496833323 973.6921088 242.33496833323 970.8761088 240.92696833323 C 968.0601088 239.51896833323 964.9881088 238.81496833323 961.6601088 238.81496833323 C 956.6681088 238.81496833323 952.4121088 240.41496833323 948.8921088 243.61496833323 C 945.3721088 246.81496833323 943.4201088 251.32696833323 943.0361088 257.15096833323 L 979.9001088 257.15096833323 C 979.9641088 253.24696833323 979.1801088 249.91896833323 977.5481088 247.16696833323 Z M 1017.2921088 235.55096833323 C 1020.3321088 233.75896833323 1024.0601088 232.86296833323 1028.4761088 232.86296833323 L 1028.4761088 239.87096833323 L 1026.6521088 239.87096833323 C 1021.7881088 239.87096833323 1017.8841088 241.18296833323 1014.9401088 243.80696833323 C 1011.9961088 246.43096833323 1010.5241088 250.81496833323 1010.5241088 256.95896833323 L 1010.5241088 286.23896833323 L 1003.8041088 286.23896833323 L 1003.8041088 233.82296833323 L 1010.5241088 233.82296833323 L 1010.5241088 243.13496833323 C 1011.9961088 239.87096833323 1014.2521088 237.34296833323 1017.2921088 235.55096833323 Z M 1086.5561088 233.82296833323 L 1055.4521088 310.91096833323 L 1048.4441088 310.91096833323 L 1058.6201088 285.95096833323 L 1037.1161088 233.82296833323 L 1044.5081088 233.82296833323 L 1062.3641088 278.55896833323 L 1079.6441088 233.82296833323 L 1086.5561088 233.82296833323 Z"/></svg>